<svg width="900" height="300" viewBox="0 0 900 300" fill="none" xmlns="http://www.w3.org/2000/svg">
<rect width="900" height="300" fill="#EDEDED"/>
<path d="M419.404 240C436.017 240 449.5 226.485 449.5 209.833V179.667H419.404C402.791 179.667 389.308 193.181 389.308 209.833C389.308 226.485 402.791 240 419.404 240Z" fill="#0ACF83"/>
<path d="M389.308 149.5C389.308 132.848 402.791 119.333 419.404 119.333H449.5V179.667H419.404C402.791 179.667 389.308 166.152 389.308 149.5Z" fill="#A259FF"/>
<path d="M389.308 89.1667C389.308 72.5147 402.791 59 419.404 59H449.5V119.333H419.404C402.791 119.333 389.308 105.819 389.308 89.1667Z" fill="#F24E1E"/>
<path d="M449.5 59H479.596C496.209 59 509.692 72.5147 509.692 89.1667C509.692 105.819 496.209 119.333 479.596 119.333H449.5V59Z" fill="#FF7262"/>
<path d="M509.692 149.5C509.692 166.152 496.209 179.667 479.596 179.667C462.983 179.667 449.5 166.152 449.5 149.5C449.5 132.848 462.983 119.333 479.596 119.333C496.209 119.333 509.692 132.848 509.692 149.5Z" fill="#1ABCFE"/>
</svg>
